<svg width="20" height="20" viewBox="0 0 20 20" fill="none" xmlns="http://www.w3.org/2000/svg">
<g clip-path="url(#clip0_2885_6199)">
<path d="M4.383 12.5274C5.83612 11.1251 7.81659 10.2579 10.0002 10.2579C12.1799 10.2579 14.1603 11.1211 15.6174 12.5274L17.6213 10.4532C18.5197 9.48833 19.0588 8.16411 19.0236 6.70318C18.9572 3.9688 16.8361 1.73833 14.2189 1.6524C12.4767 1.59771 10.926 2.48052 10.0002 3.85552C9.09784 2.51568 7.60565 1.64068 5.91815 1.64849C3.18378 1.66021 0.953308 4.01958 0.976746 6.87505C0.988464 8.29302 1.54315 9.57427 2.43378 10.504L4.383 12.5274Z" fill="#FFAFAF"/>
<path d="M20.0002 6.67969C19.9611 5.11328 19.3517 3.63281 18.2853 2.51172C17.2072 1.37891 15.7736 0.726562 14.2502 0.679687C12.6525 0.625 11.133 1.23438 10.0002 2.33984C8.91031 1.28125 7.46109 0.671875 5.93765 0.671875C5.92984 0.671875 5.92203 0.671875 5.91031 0.671875C4.36734 0.679688 2.91031 1.30078 1.79703 2.42578C0.644686 3.59766 -0.0115644 5.22266 0.00015431 6.88672C0.0118731 8.50781 0.625154 10.0312 1.73062 11.1836L9.29703 19.0273C9.48844 19.2266 9.74234 19.3242 10.0002 19.3242C10.2423 19.3242 10.4884 19.2344 10.6798 19.0508C11.0666 18.6758 11.0783 18.0586 10.7033 17.668L3.13687 9.83203C2.38297 9.04297 1.96109 7.99219 1.95328 6.87109C1.94547 5.72266 2.39469 4.60547 3.18765 3.80078C3.92984 3.04688 4.9025 2.62891 5.92203 2.625H5.93765C7.22672 2.625 8.44156 3.28906 9.18765 4.39844C9.36734 4.66797 9.67203 4.82812 9.99625 4.82812C10.3205 4.82812 10.6252 4.66797 10.8048 4.39844C11.5822 3.24609 12.8439 2.58203 14.1798 2.625C15.1877 2.65625 16.1408 3.09375 16.8634 3.85156C17.5978 4.62109 18.0158 5.64062 18.0392 6.71875C18.0666 7.87109 17.6603 8.95703 16.8986 9.78125C16.8986 9.78516 16.8947 9.78516 16.8947 9.78906L11.9728 14.9023C11.5978 15.2891 11.6095 15.9102 12.0002 16.2812C12.3869 16.6562 13.008 16.6445 13.3791 16.2539L18.3166 11.1211L18.3478 11.0898C19.4533 9.90234 20.0392 8.33594 20.0002 6.67969Z" fill="black"/>
</g>
<defs>
<clipPath id="clip0_2885_6199">
<rect width="20" height="20" fill="white"/>
</clipPath>
</defs>
</svg>
