<svg width="260" height="272" viewBox="0 0 260 272" fill="none" xmlns="http://www.w3.org/2000/svg">
<path fill-rule="evenodd" clip-rule="evenodd" d="M152.328 29.6992C148.38 27.0046 145.191 23.2609 144.242 18.3645C141.505 4.25692 161.778 2.10025 167.438 8.07623C173.099 14.0522 177.408 31.898 172.853 34.4549C171.036 35.4746 166.553 35.3656 161.646 33.9713L169.296 51.8654L153.622 56.0567L152.328 29.6992Z" fill="#B28B67"/>
<path fill-rule="evenodd" clip-rule="evenodd" d="M157.766 16.3891C160.588 24.5078 163.287 28.2228 165.862 27.5341C169.724 26.501 172.349 23.1961 174.044 22.7428C175.279 22.4124 175.414 24.0173 174.9 25.3715C174.476 26.4889 171.428 28.2717 171.818 29.7237C172.208 31.1758 174.506 29.3571 174.737 30.2183C175.119 31.6428 176.295 34.1989 173.799 34.8666C171.272 35.5424 163.784 36.568 161.546 33.1864C160.101 31.0041 158.25 26.1763 155.993 18.7031C155.834 18.7261 155.676 18.7585 155.518 18.8008C153.353 19.3798 152.065 21.5871 152.64 23.7309C152.933 24.8192 153.649 25.682 154.567 26.192C154 27.7023 153.339 29.2985 152.541 30.9766C147.468 29.5471 142.179 22.8049 144.494 14.3497C144.715 10.4519 146.878 7.82288 149.8 6.08907C152.076 4.34328 154.703 3.51265 157.117 3.54844C161.616 2.74557 165.901 3.0234 167.226 3.51457C168.333 7.63907 167.854 9.07862 160.933 10.8142C159.477 12.153 158.585 14.0266 157.766 16.3891Z" fill="#191847"/>
<path fill-rule="evenodd" clip-rule="evenodd" d="M161.246 110.594L194.447 194.201L216.714 264.885H225.507L191.465 110.594L161.246 110.594Z" fill="#997659"/>
<path fill-rule="evenodd" clip-rule="evenodd" d="M154.558 110.594C154.205 139.974 149.049 179.53 148.225 181.361C147.676 182.582 128.718 198.109 91.3516 227.941L97.4078 234.389C141.497 208.812 164.561 194.317 166.601 190.906C169.662 185.789 179.625 138.701 187.624 110.594H154.558Z" fill="#B28B67"/>
<path fill-rule="evenodd" clip-rule="evenodd" d="M90.5028 225.778C88.469 226.495 87.0681 227.176 86.2999 227.82C85.3656 228.603 84.1329 229.901 82.6017 231.714C83.5113 232.797 91.6864 242.528 107.127 260.907C110.275 259.562 111.262 257.988 110.089 256.186C108.916 254.384 107.956 252.874 107.209 251.658L101.865 233.015C101.762 232.656 101.388 232.449 101.029 232.551C101.023 232.553 101.017 232.555 101.01 232.557L98.1599 233.459C96.1821 232.539 94.7958 231.605 94.0011 230.659C93.3554 229.891 92.7744 228.569 92.2581 226.694C92.0599 225.974 91.3153 225.551 90.595 225.749C90.5639 225.757 90.5332 225.767 90.5028 225.778Z" fill="#E4E4E4"/>
<path fill-rule="evenodd" clip-rule="evenodd" d="M213.112 261.687C212.355 263.705 211.977 265.215 211.977 266.216C211.977 267.435 212.18 269.212 212.586 271.55C214.001 271.55 226.719 271.55 250.738 271.55C251.73 268.276 251.157 266.509 249.021 266.248C246.885 265.987 245.111 265.751 243.698 265.541L225.965 257.645C225.624 257.493 225.224 257.646 225.072 257.987C225.069 257.992 225.067 257.998 225.064 258.004L223.925 260.766C221.947 261.687 220.34 262.148 219.104 262.148C218.099 262.148 216.712 261.743 214.942 260.933C214.263 260.622 213.46 260.92 213.149 261.598C213.135 261.627 213.123 261.657 213.112 261.687Z" fill="#E4E4E4"/>
<path fill-rule="evenodd" clip-rule="evenodd" d="M183.567 257.604L225.374 253.09L194.39 110.594H156.945L183.567 257.604Z" fill="#69A1AC"/>
<path fill-rule="evenodd" clip-rule="evenodd" d="M100 217.538L127.423 249.833C156.306 218.446 173.146 197.966 177.94 188.393C182.735 178.819 187.046 152.887 190.871 110.594H148.716C146.626 147.801 145.217 167.27 144.489 169.002C143.762 170.733 128.932 186.912 100 217.538Z" fill="#89C5CC"/>
<path fill-rule="evenodd" clip-rule="evenodd" d="M213.016 95.0927L237.004 106.867C243.04 107.399 248.195 108.475 252.468 110.096C253.527 110.763 254.927 112.244 251.088 112.621C247.249 112.998 243.228 113.566 242.932 114.943C242.637 116.32 245.2 117.452 244.45 119.372C243.95 120.651 240.11 118.339 232.932 112.436L210.358 107.464L213.016 95.0927ZM131.53 109.986L145.46 107.59C141.739 136.691 139.685 152.145 139.298 153.954C138.427 158.023 142.711 163.233 144.655 166.096C140.469 168.917 139.631 161.346 134.368 165.006C129.565 168.346 126.361 173.431 119.662 170.786C118.839 170.461 117.721 168.888 119.452 167.201C123.762 162.997 129.792 155.906 130.406 153.813C131.244 150.959 131.618 136.35 131.53 109.986Z" fill="#B28B67"/>
<path fill-rule="evenodd" clip-rule="evenodd" d="M160.842 44.958L166.428 42.9623C191.038 57.5551 206.044 91.2695 235.536 105.338L230.604 114.217C184.178 116.62 165.317 75.5946 160.842 44.958Z" fill="#821A1A"/>
<path fill-rule="evenodd" clip-rule="evenodd" d="M148.446 121.347C171.538 117.283 188.523 114.294 199.403 112.379C201.732 111.969 200.702 108.704 200.068 107.076C192.743 88.2918 173.871 69.9748 168.975 42.2624L153.872 42.5575C145.149 64.1373 145.173 88.8121 148.446 121.347Z" fill="#DDE3E9"/>
<path fill-rule="evenodd" clip-rule="evenodd" d="M138.887 64.8935C136.645 64.6591 134.703 63.5336 133.062 61.5172C125.987 52.8248 126.99 47.1771 132.423 44.4225C137.856 41.6679 143.61 44.3597 152.757 42.7499C153.255 42.6624 153.716 42.6132 154.141 42.6024L158.788 42.0537C179.848 84.2145 188.733 113.253 185.441 129.169L145.335 136.227C143.932 142.154 142.477 147.189 140.97 151.333L130.042 153.256C123.172 120.373 126.121 90.9192 138.887 64.8935Z" fill="#BE1717"/>
<path fill-rule="evenodd" clip-rule="evenodd" d="M150.026 111.846C153.142 122.117 156.537 129.371 160.213 133.61L145.329 136.229C146.966 129.315 148.532 121.187 150.026 111.846Z" fill="black" fill-opacity="0.1"/>
<path fill-rule="evenodd" clip-rule="evenodd" d="M79.955 35.5835C76.9541 32.0652 74.9231 27.7535 75.2624 22.9222C76.2403 9.00163 95.6412 12.064 99.4151 19.0899C103.189 26.1158 102.741 43.9375 97.8631 45.1932C95.918 45.694 91.7744 44.4673 87.5571 41.9284L90.2042 60.6334H74.5742L79.955 35.5835Z" fill="#B28B67"/>
<path fill-rule="evenodd" clip-rule="evenodd" d="M106.34 9.35359C106.017 8.21724 105.146 7.2443 103.973 6.95565C103.688 6.88563 103.395 6.85735 103.102 6.86914C102.997 6.87333 102.967 6.90357 102.918 6.83023C102.882 6.77585 102.881 6.64299 102.866 6.57909C102.82 6.38036 102.761 6.18412 102.689 5.99295C102.444 5.34095 102.031 4.76391 101.534 4.27782C100.604 3.36843 99.3469 2.74082 98.041 2.62727C97.3263 2.56516 96.6169 2.68114 95.9412 2.91336C95.5914 3.03357 95.2522 3.18325 94.9218 3.34874C94.8223 3.39855 94.4996 3.64251 94.3998 3.62671C94.2895 3.60928 94.068 3.33563 93.9783 3.26694C92.8703 2.41783 91.502 2.08398 90.1219 2.09397C88.5641 2.10568 87.064 2.18343 85.7648 3.13195C85.4898 3.33276 85.2279 3.55263 84.9785 3.78412C84.8472 3.906 84.7199 4.03244 84.5986 4.16414C84.5254 4.2436 84.4542 4.32485 84.3855 4.40828C84.2691 4.54989 84.2878 4.59641 84.1248 4.4976C83.4996 4.11818 82.775 3.94073 82.0452 4.03031C81.6118 4.08354 81.1902 4.21348 80.7899 4.38453C80.6535 4.44275 80.338 4.67501 80.1928 4.67728C80.0486 4.6795 79.7375 4.4642 79.5891 4.40947C78.7872 4.11382 77.923 4.04095 77.0802 4.17756C76.2108 4.31853 75.3568 4.66497 74.6202 5.14372C74.2659 5.37401 73.9568 5.62916 73.7086 5.97159C73.6014 6.11944 73.5045 6.27583 73.383 6.41291C73.3118 6.49318 73.171 6.57554 73.1328 6.67713C73.1556 6.6163 72.182 6.2414 72.0901 6.21744C71.6007 6.08975 71.1023 6.11564 70.623 6.27318C69.7217 6.56943 68.9466 7.23379 68.3096 7.91493C67.9824 8.26479 67.6961 8.65152 67.453 9.06353C67.3366 9.26089 67.2301 9.46389 67.1326 9.6712C67.0854 9.77163 67.0541 9.89726 66.9919 9.98774C66.9117 10.1043 66.8578 10.1065 66.7126 10.1574C65.9749 10.4155 65.3025 10.8524 64.7905 11.4427C64.2726 12.0399 63.9365 12.7754 63.7956 13.5499C63.7873 13.5955 63.7824 13.7846 63.7556 13.8093C63.7189 13.8433 63.5706 13.8283 63.5145 13.8349C63.3202 13.8576 63.1273 13.8915 62.9369 13.9365C62.586 14.0195 62.2444 14.1416 61.9213 14.3013C60.6618 14.9237 59.761 16.0906 59.3202 17.4037C58.8577 18.7817 58.8659 20.3604 59.4187 21.7127C59.508 21.9311 59.6142 22.1432 59.7391 22.3437C59.8157 22.4668 59.8404 22.4671 59.7907 22.5963C59.7352 22.74 59.6339 22.8797 59.568 23.0201C59.3531 23.4783 59.2029 23.9643 59.108 24.4607C58.9524 25.2749 58.8752 26.1306 59.0288 26.9511C59.1001 27.332 59.2243 27.7045 59.4139 28.0438C59.5105 28.2168 59.6236 28.3809 59.7513 28.5326C59.8176 28.6115 59.888 28.6867 59.9616 28.7588C60.0037 28.8 60.0589 28.8361 60.0947 28.8821C60.1822 28.9942 60.2005 28.902 60.1555 29.0667C60.0924 29.297 59.9495 29.5243 59.8621 29.7484C59.7719 29.9793 59.6904 30.2134 59.6159 30.4498C59.4649 30.9285 59.3373 31.4159 59.2575 31.9116C59.1042 32.8634 59.1311 33.8776 59.5819 34.7511C59.7746 35.1248 60.0511 35.4525 60.3864 35.7075C60.5506 35.8323 60.7283 35.9398 60.9148 36.0281C61.0107 36.0735 61.133 36.093 61.1767 36.1856C61.2238 36.2851 61.1539 36.4828 61.138 36.5941C60.9994 37.5621 60.9299 38.5786 61.218 39.5273C61.4834 40.4011 62.0676 41.1726 62.8262 41.6833C64.2978 42.6742 66.2814 42.6183 67.8277 41.8251C68.2307 41.6183 68.6078 41.3615 68.9442 41.0587C69.8007 42.2104 71.5633 42.174 72.8151 41.8458C74.3748 41.437 75.6262 40.3538 76.3473 38.9306C77.3332 40.1294 79.4024 39.7404 80.0861 38.4399C80.2534 38.1216 80.3527 37.7708 80.4015 37.4158C80.4272 37.2292 80.4109 37.0409 80.4302 36.8557C80.4548 36.6197 80.6126 36.3904 80.7033 36.1621C80.88 35.7178 80.9897 35.2589 80.9944 34.7797C80.9969 34.5295 80.9651 34.2857 80.9413 34.0375C80.9199 33.8141 80.9819 33.6059 81.0172 33.3854C80.6172 33.4512 80.1299 33.3434 79.753 33.2276C79.3832 33.1139 79.0368 32.8145 78.7758 32.5411C78.1697 31.9061 77.7995 31.0737 77.5463 30.2453C76.9904 28.427 77.2183 26.2455 79.0493 25.2477C79.9022 24.7828 82.4576 24.7843 83.4736 25.0141C84.5418 25.2556 85.7528 27.6099 85.8124 27.8312C85.8492 27.9681 85.8307 28.1376 85.9566 28.2289C86.2335 28.4295 86.69 28.0813 86.8942 27.9095C87.2465 27.6129 87.4979 27.2182 87.7155 26.8182C88.1898 25.9468 88.5722 25.0122 88.8422 24.0582C89.0505 23.3227 89.1836 22.5642 89.4557 21.8475C89.7266 21.1342 90.1535 20.4968 90.8172 20.0927C91.5393 19.6532 92.367 19.4217 93.1597 19.1455C93.9454 18.8718 94.7176 18.5372 95.3267 17.9563C95.4606 17.8286 95.5907 17.6929 95.6985 17.5425C95.7836 17.4238 95.8677 17.1966 95.9973 17.1213C96.1989 17.0042 96.4931 17.3087 96.6674 17.4192C97.5273 17.9648 98.2448 18.7256 98.8234 19.5567C99.3988 20.3833 99.871 21.1787 100.255 22.1017C100.539 22.7862 100.717 23.6629 101.217 24.224C101.441 24.4745 103.102 24.626 103.64 24.4073C104.178 24.1886 104.781 23.6207 104.962 23.2648C105.146 22.9006 105.191 22.5004 105.112 22.1017C105.065 21.8671 104.97 21.6479 104.918 21.4175C104.875 21.2239 104.835 21.041 104.741 20.8637C104.562 20.5276 104.256 20.2861 103.888 20.1851C104.271 19.8321 104.589 19.4099 104.809 18.9378C105.037 18.4474 105.231 17.851 105.286 17.3128C105.33 16.8756 105.261 16.4227 105.022 16.047C104.77 15.6529 104.325 15.3957 103.94 15.1499C104.528 14.69 105.032 14.1307 105.446 13.5114C106.251 12.3072 106.749 10.7893 106.34 9.35359Z" fill="#191847"/>
<path fill-rule="evenodd" clip-rule="evenodd" d="M69.4141 114.469L100.727 197.227L122.675 258.224H135.19L105.02 114.469L69.4141 114.469Z" fill="#1F28CF"/>
<path fill-rule="evenodd" clip-rule="evenodd" d="M61.6753 114.469C61.335 142.865 61.581 181.096 60.788 182.866C60.2593 184.046 43.8143 197.491 11.4531 223.201L17.9037 234.157C56.3239 209.41 76.5161 195.388 78.4804 192.091C81.4268 187.145 96.2292 141.635 103.931 114.469H61.6753Z" fill="#2B44FF"/>
<path fill-rule="evenodd" clip-rule="evenodd" d="M0.103039 230.568L10.9968 222.287L19.7882 232.752C20.4652 240.64 23.0809 249.488 27.6354 259.293L25.6401 260.966L9.73177 242.029L5.28707 234.715L4.28944 235.551L0.103039 230.568Z" fill="#191847"/>
<path fill-rule="evenodd" clip-rule="evenodd" d="M121.516 269.933L122.167 256.273H135.843C142.328 260.827 150.794 264.513 161.242 267.332V269.933H136.494L128.028 268.633V269.933H121.516Z" fill="#191847"/>
<path fill-rule="evenodd" clip-rule="evenodd" d="M124.615 106.234L145.389 121.471C151.023 122.989 155.73 124.879 159.51 127.139C160.403 127.952 161.483 129.597 157.779 129.313C154.076 129.029 150.168 128.896 149.657 130.157C149.146 131.419 151.387 132.928 150.354 134.63C149.665 135.765 146.412 132.919 140.594 126.093L120.023 117.573L124.615 106.234ZM44.8542 106.76L58.4637 106.814C50.0605 133.908 45.524 148.285 44.8542 149.943C43.3473 153.673 46.5362 159.354 47.8999 162.407C43.4584 164.392 43.9316 157.04 38.3287 159.644C33.2146 162.02 29.3244 166.326 23.4158 162.685C22.6894 162.237 21.8933 160.551 23.8167 159.234C28.6084 155.952 35.5136 150.209 36.4466 148.318C37.7189 145.74 40.5215 131.887 44.8542 106.76Z" fill="#B28B67"/>
<path fill-rule="evenodd" clip-rule="evenodd" d="M83.5296 49.7192L89.161 48.7545C110.055 66.7827 118.637 101.417 144.249 119.765L138.084 127.397C93.6534 121.902 82.6408 79.6561 83.5296 49.7192Z" fill="#FD6C6C"/>
<path fill-rule="evenodd" clip-rule="evenodd" d="M58.9805 120.412C81.5605 120.412 98.1698 120.412 108.809 120.412C111.085 120.412 110.656 117.128 110.327 115.471C106.529 96.3471 91.7001 75.732 91.7001 48.5089L77.3274 46.2578C65.4392 65.3548 61.3281 88.8671 58.9805 120.412Z" fill="#DDE3E9"/>
<path fill-rule="evenodd" clip-rule="evenodd" d="M59.3826 65.0255C57.2951 64.4262 55.642 63.0284 54.4234 60.832C49.1701 51.3643 51.0673 46.1515 56.6814 44.4381C62.2955 42.7246 67.3021 46.254 76.2468 46.254C76.7333 46.254 77.1789 46.2845 77.5836 46.3454L82.083 46.6019C94.9924 90.3013 98.5527 119.457 92.764 134.069H53.5454C51.2217 139.481 48.9982 144.034 46.8747 147.729H36.1884C35.1827 115.248 42.914 87.6807 59.3826 65.0255Z" fill="#FFAFAF"/>
<path fill-rule="evenodd" clip-rule="evenodd" d="M62.0831 111.625C63.3165 121.933 65.3212 129.414 68.0972 134.068H53.543C56.2535 127.755 59.1002 120.274 62.0831 111.625Z" fill="black" fill-opacity="0.1"/>
</svg>
