<svg width="120" height="142" viewBox="0 0 120 142" fill="none" xmlns="http://www.w3.org/2000/svg">
<g clip-path="url(#clip0_2081_87854)">
<path d="M85.3398 118.925L86.5268 141.716C86.5268 141.716 36.3172 93.9273 30.062 79.9451C23.8067 65.9629 35.5813 31.375 35.5813 31.375L61.7061 45.7248L85.3398 118.925Z" fill="#ED9DA0"/>
<path d="M8.35178 21.8125L0.624682 22.5484C0.624682 22.5484 -3.42284 31.3794 9.08769 32.1149L8.35178 21.8125Z" fill="#ED9DA0"/>
<path d="M8.35178 35.4219L0.624682 36.1583C0.624682 36.1583 -3.42284 44.9893 9.08769 45.7248L8.35178 35.4219Z" fill="#ED9DA0"/>
<path d="M8.35178 50.1406L0.624682 50.8765C0.624682 50.8765 -3.42284 59.7075 9.08769 60.4431L8.35178 50.1406Z" fill="#ED9DA0"/>
<path d="M10.5588 64.8594L2.83171 65.5953C2.83171 65.5953 -1.21581 74.4263 11.2947 75.1618L10.5588 64.8594Z" fill="#ED9DA0"/>
<path d="M4.58984 25.358H5.17624V9.29618C5.17624 6.83068 6.15565 4.46616 7.89902 2.72279C9.64239 0.979416 12.0069 0 14.4724 0H48.5012C50.9667 0 53.3313 0.979416 55.0746 2.72279C56.818 4.46616 57.7974 6.83068 57.7974 9.29618V97.4124C57.7974 98.6332 57.557 99.842 57.0898 100.97C56.6226 102.098 55.9379 103.123 55.0746 103.986C54.2114 104.849 53.1866 105.534 52.0587 106.001C50.9309 106.468 49.722 106.709 48.5012 106.709H14.4724C13.2516 106.709 12.0428 106.468 10.9149 106.001C9.78706 105.534 8.76225 104.849 7.89902 103.986C7.03579 103.123 6.35104 102.098 5.88387 100.97C5.41669 99.842 5.17624 98.6332 5.17624 97.4124V36.7911H4.58984V25.358Z" fill="#3F3D56"/>
<path d="M14.0985 2.42223H18.5404C18.3362 2.923 18.2582 3.46631 18.3134 4.00431C18.3685 4.54231 18.5552 5.05849 18.8568 5.50737C19.1585 5.95626 19.5659 6.32408 20.0431 6.57843C20.5204 6.83279 21.0529 6.96588 21.5937 6.96598H41.0889C41.6297 6.96591 42.1623 6.83283 42.6396 6.57848C43.1169 6.32413 43.5244 5.9563 43.826 5.50739C44.1277 5.05849 44.3144 4.54228 44.3696 4.00424C44.4248 3.46621 44.3468 2.92286 44.1426 2.42205H48.2914C50.1326 2.4221 51.8983 3.15351 53.2002 4.4554C54.5021 5.75729 55.2335 7.52301 55.2335 9.36416V97.351C55.2335 99.1922 54.5021 100.958 53.2002 102.26C51.8984 103.562 50.1326 104.293 48.2914 104.293H14.0985C12.2573 104.293 10.4915 103.562 9.1896 102.26C7.88767 100.958 7.15625 99.1922 7.15625 97.351V9.36416C7.15625 7.52295 7.88767 5.75716 9.1896 4.45522C10.4915 3.15329 12.2573 2.42188 14.0985 2.42188V2.42223Z" fill="white"/>
<path d="M37.1014 27.0703H25.2845C24.5017 27.0703 23.8672 27.7048 23.8672 28.4876V29.1886C23.8672 29.9713 24.5017 30.6059 25.2845 30.6059H37.1014C37.8841 30.6059 38.5187 29.9713 38.5187 29.1886V28.4876C38.5187 27.7048 37.8841 27.0703 37.1014 27.0703Z" fill="#F53E3E"/>
<path d="M37.8012 42.2578H24.5891C23.8064 42.2578 23.1719 42.8923 23.1719 43.6751V44.3761C23.1719 45.1588 23.8064 45.7934 24.5891 45.7934H37.8012C38.5839 45.7934 39.2185 45.1588 39.2185 44.3761V43.6751C39.2185 42.8923 38.5839 42.2578 37.8012 42.2578Z" fill="#E5E5E5"/>
<path d="M47.6823 49.8516H14.7024C13.9197 49.8516 13.2852 50.4861 13.2852 51.2688V51.9698C13.2852 52.7526 13.9197 53.3871 14.7024 53.3871H47.6823C48.465 53.3871 49.0996 52.7526 49.0996 51.9698V51.2688C49.0996 50.4861 48.465 49.8516 47.6823 49.8516Z" fill="#E5E5E5"/>
<path d="M47.6823 57.4531H14.7024C13.9197 57.4531 13.2852 58.0877 13.2852 58.8704V59.5714C13.2852 60.3541 13.9197 60.9887 14.7024 60.9887H47.6823C48.465 60.9887 49.0996 60.3541 49.0996 59.5714V58.8704C49.0996 58.0877 48.465 57.4531 47.6823 57.4531Z" fill="#E5E5E5"/>
<path d="M120 130.798L117.725 128.202L78.815 83.8117L77.3432 53.6394L61.8893 27.8825L57.4739 16.8438C57.4739 16.8438 47.1711 17.9476 55.6341 38.921L59.1296 50.1436C55.9786 56.9303 54.3463 64.3228 54.3463 71.8054V97.5221C54.3463 103.578 83.2028 136.562 86.5618 141.6L120 130.798Z" fill="#ED9DA0"/>
<path opacity="0.2" d="M58.6865 30.0627L61.7588 28.5528L61.6541 28.3402L58.8155 29.7355L54.5304 18.5L54.3086 18.5847L58.6865 30.0627Z" fill="black"/>
<path opacity="0.2" d="M0.664088 22.4335L0.582031 22.6562L5.13329 24.3328L5.21535 24.11L0.664088 22.4335Z" fill="black"/>
<path opacity="0.2" d="M0.664088 36.2069L0.582031 36.4297L5.13329 38.1062L5.21535 37.8835L0.664088 36.2069Z" fill="black"/>
<path opacity="0.2" d="M0.664088 50.9257L0.582031 51.1484L5.13329 52.825L5.21535 52.6022L0.664088 50.9257Z" fill="black"/>
<path opacity="0.2" d="M3.05194 65.6454L2.94922 65.8594L5.1651 66.9229L5.26782 66.7089L3.05194 65.6454Z" fill="black"/>
<path d="M31.1692 91.5649C36.8372 91.5649 41.4321 86.9701 41.4321 81.302C41.4321 75.6339 36.8372 71.0391 31.1692 71.0391C25.5011 71.0391 20.9062 75.6339 20.9062 81.302C20.9062 86.9701 25.5011 91.5649 31.1692 91.5649Z" fill="#F53E3E"/>
<path d="M30.0665 85.6487C29.9418 85.6489 29.8183 85.6244 29.7031 85.5767C29.5879 85.5289 29.4832 85.4589 29.3951 85.3706L26.1414 81.9399C25.9633 81.7618 25.8633 81.5203 25.8633 81.2684C25.8633 81.0166 25.9633 80.775 26.1414 80.5969C26.3195 80.4188 26.5611 80.3188 26.8129 80.3188C27.0648 80.3188 27.3064 80.4188 27.4845 80.5969L30.0665 83.3561L34.8392 76.9891C35.0173 76.811 35.2588 76.7109 35.5107 76.7109C35.7626 76.7109 36.0041 76.811 36.1822 76.9891C36.3603 77.1672 36.4604 77.4087 36.4604 77.6606C36.4604 77.9125 36.3603 78.154 36.1822 78.3321L30.738 85.3706C30.6499 85.4589 30.5452 85.5289 30.43 85.5767C30.3148 85.6244 30.1913 85.6489 30.0665 85.6487Z" fill="#F2F2F2"/>
</g>
<defs>
<clipPath id="clip0_2081_87854">
<rect width="120" height="141.718" fill="white"/>
</clipPath>
</defs>
</svg>
