<svg width="120" height="120" viewBox="0 0 120 120" fill="none" xmlns="http://www.w3.org/2000/svg">
<rect width="120" height="120" rx="60" fill="#FFAFAF"/>
<path d="M79.3125 28.75H40.6875C34.0946 28.75 28.75 34.0946 28.75 40.6875V79.3125C28.75 85.9054 34.0946 91.25 40.6875 91.25H79.3125C85.9054 91.25 91.25 85.9054 91.25 79.3125V40.6875C91.25 34.0946 85.9054 28.75 79.3125 28.75Z" fill="#FFAFAF"/>
<path d="M72.385 47.7444L72.2719 47.6312C69.6313 40.1112 62.4694 34.7188 54.0469 34.7188C43.3806 34.7188 34.7344 43.365 34.7344 54.0312V64.9094C34.7144 65.2706 34.7031 65.6337 34.7031 66H34.7344V79.3125C34.7344 82.6087 37.4069 85.2812 40.7031 85.2812H65.9844C76.6506 85.2812 85.2969 76.635 85.2969 65.9688C85.2969 57.5463 79.9044 50.385 72.3844 47.7438L72.385 47.7444ZM54.0556 40.6956C59.7463 40.6956 64.6038 44.2581 66.5225 49.2737L40.7119 75.0844V65.6C40.9394 58.4406 46.8056 52.705 54.0169 52.6881C55.6738 52.6881 57.0169 51.3444 57.0169 49.6875C57.0169 48.0306 55.6738 46.6875 54.0169 46.6875C48.95 46.6875 44.34 48.6394 40.895 51.8312C41.9469 45.5125 47.4381 40.695 54.0556 40.695V40.6956ZM65.9769 79.3056H44.9319L70.7425 53.495C75.7588 55.4137 79.3206 60.2713 79.3206 65.9619C79.3206 73.3313 73.3463 79.3056 65.9769 79.3056Z" fill="black"/>
</svg>
