<svg width="68" height="68" viewBox="0 0 68 68" fill="none" xmlns="http://www.w3.org/2000/svg">
<path d="M50.2425 17.3675L50.0917 17.2167C46.5708 7.19 37.0217 0 25.7917 0C11.57 0 0.0416667 11.5283 0.0416667 25.75V40.2542C0.015 40.7358 0 41.22 0 41.7083H0.0416667V59.4583C0.0416667 63.8533 3.605 67.4167 8 67.4167H41.7083C55.93 67.4167 67.4583 55.8883 67.4583 41.6667C67.4583 30.4367 60.2683 20.8883 50.2417 17.3667L50.2425 17.3675ZM25.8033 7.96917C33.3908 7.96917 39.8675 12.7192 42.4258 19.4067L8.01167 53.8208V41.175C8.315 31.6292 16.1367 23.9817 25.7517 23.9592C27.9608 23.9592 29.7517 22.1675 29.7517 19.9583C29.7517 17.7492 27.9608 15.9583 25.7517 15.9583C18.9958 15.9583 12.8492 18.5608 8.25583 22.8167C9.65833 14.3917 16.98 7.96833 25.8033 7.96833V7.96917ZM41.6983 59.4492H13.6383L48.0525 25.035C54.7408 27.5933 59.49 34.07 59.49 41.6575C59.49 51.4833 51.5242 59.4492 41.6983 59.4492Z" fill="black"/>
</svg>
