<svg width="800" height="800" viewBox="0 0 800 800" fill="none" xmlns="http://www.w3.org/2000/svg">
<g clip-path="url(#clip0_1530_28919)">
<path d="M647.2 0H152.8C68.4109 0 0 68.4109 0 152.8V647.2C0 731.589 68.4109 800 152.8 800H647.2C731.589 800 800 731.589 800 647.2V152.8C800 68.4109 731.589 0 647.2 0Z" fill="#FFAFAF"/>
<path d="M558.52 243.12L557.072 241.672C523.272 145.416 431.6 76.392 323.792 76.392C187.264 76.392 76.592 187.064 76.592 323.592V462.832C76.336 467.456 76.192 472.104 76.192 476.792H76.592V647.192C76.592 689.384 110.8 723.592 152.992 723.592H476.592C613.12 723.592 723.792 612.92 723.792 476.392C723.792 368.584 654.768 276.92 558.512 243.112L558.52 243.12ZM323.904 152.896C396.744 152.896 458.92 198.496 483.48 262.696L153.104 593.072V471.672C156.016 380.032 231.104 306.616 323.408 306.4C344.616 306.4 361.808 289.2 361.808 267.992C361.808 246.784 344.616 229.592 323.408 229.592C258.552 229.592 199.544 254.576 155.448 295.432C168.912 214.552 239.2 152.888 323.904 152.888V152.896ZM476.496 647.104H207.12L537.496 316.728C601.704 341.288 647.296 403.464 647.296 476.304C647.296 570.632 570.824 647.104 476.496 647.104Z" fill="black"/>
</g>
<defs>
<clipPath id="clip0_1530_28919">
<rect width="800" height="800" fill="white"/>
</clipPath>
</defs>
</svg>
