<svg width="277" height="180" viewBox="0 0 277 180" fill="none" xmlns="http://www.w3.org/2000/svg">
<g clip-path="url(#clip0_2081_88280)">
<path d="M178.777 31.3455C178.677 31.2163 178.577 31.087 178.47 30.9615C176.879 29.0449 174.659 27.8152 172.178 27.4681C169.652 27.1173 167.137 27.7266 165.062 29.1816C161.687 25.0309 155.579 24.2665 151.277 27.5198C150.981 27.7414 150.705 27.9777 150.442 28.2251C150.258 28.3987 150.084 28.5796 149.918 28.7643C149.936 28.7938 149.955 28.8197 149.977 28.8492L161.69 44.6062L161.986 44.3847C162.606 43.9268 177.111 33.1402 177.569 32.7968C178.068 32.4201 178.522 32.0028 178.928 31.556C178.88 31.4858 178.829 31.4157 178.777 31.3455Z" fill="#FFAFAF"/>
<path d="M179.516 18.7908C177.906 16.6564 175.561 15.2827 172.917 14.9134C170.391 14.5626 167.877 15.1719 165.801 16.6269C162.426 12.4762 156.318 11.7118 152.016 14.9651C147.71 18.2148 146.783 24.3891 149.919 28.765C149.937 28.7945 149.956 28.8204 149.978 28.8499L161.691 44.6069L161.987 44.3854C162.607 43.9275 177.112 33.1409 177.57 32.7975C178.069 32.4208 178.523 32.0035 178.929 31.5567C182.112 28.0708 182.467 22.6904 179.516 18.7908ZM178.471 30.9622C178.069 31.4164 177.618 31.8337 177.123 32.2066C176.706 32.5242 163.962 41.9961 161.843 43.573L150.572 28.4105C150.528 28.3514 150.484 28.2886 150.443 28.2258C147.629 24.1786 148.512 18.5397 152.463 15.5523C154.132 14.2931 156.089 13.6837 158.035 13.6837C160.842 13.6837 163.619 14.9504 165.436 17.358L165.657 17.6535L165.953 17.4282C170.026 14.3521 175.849 15.1608 178.929 19.234C180.421 21.2096 181.052 23.6431 180.713 26.0951C180.458 27.9341 179.679 29.6106 178.471 30.9622Z" fill="#FFAFAF"/>
<path d="M259.06 37.6674L256.648 37.2982C256.316 35.6069 255.825 33.9414 255.186 32.3388C255.459 33.8971 255.356 35.5183 254.905 37.0323L228.941 33.0626C230.212 27.4791 230.932 22.2612 230.503 17.7967C229.865 11.098 234.828 5.06772 241.552 4.83138C241.737 4.82401 241.925 4.82031 242.113 4.82031C248.343 4.82031 253.487 8.46137 254.237 13.1659C254.503 14.8498 254.876 16.519 255.186 18.1992C256.349 24.4917 261.216 32.8779 259.06 37.6674Z" fill="#2F2E41"/>
<path d="M190.811 47.6854C191.649 48.033 192.339 48.5408 192.807 49.1042L200.995 51.911L199.545 55.7681L191.396 52.5056C190.666 52.5718 189.819 52.4423 188.982 52.0947C187.068 51.3008 185.927 49.6701 186.432 48.4525C186.937 47.2349 188.898 46.8915 190.811 47.6854Z" fill="#FFB6B6"/>
<path d="M217.141 171.491L213.903 171.568L212.098 157.019L216.876 156.906L217.141 171.491Z" fill="#FFB7B7"/>
<path d="M206.031 178.245C206.031 178.792 206.419 179.236 206.898 179.236H213.326C213.326 179.236 213.959 176.693 216.537 175.599L216.715 179.236H220.031L219.63 173.388C219.63 173.388 220.517 170.259 218.674 168.66C216.832 167.061 218.324 167.283 218.324 167.283L217.6 163.664L212.589 164.253L212.552 169.935L210.121 175.574L206.554 177.336C206.237 177.493 206.031 177.85 206.031 178.245Z" fill="#2F2E41"/>
<path d="M251.95 171.491L248.711 171.568L246.906 157.019L251.685 156.906L251.95 171.491Z" fill="#FFB7B7"/>
<path d="M240.84 178.245C240.84 178.792 241.228 179.236 241.707 179.236H248.135C248.135 179.236 248.767 176.693 251.346 175.599L251.524 179.236H254.84L254.438 173.388C254.438 173.388 255.325 170.259 253.483 168.66C251.641 167.061 253.133 167.283 253.133 167.283L252.408 163.664L247.398 164.253L247.361 169.935L244.929 175.574L241.363 177.336C241.045 177.493 240.84 177.85 240.84 178.245Z" fill="#2F2E41"/>
<path d="M225.826 65.7344L245.767 69.0579C248.381 73.3792 253.521 89.7373 253.521 89.7373C253.521 89.7373 252.175 135.182 253.326 161.474L245.028 161.746L233.95 103.031L219.179 160.269L211.121 160.839L212.162 120.018C212.162 120.018 223.297 66.2402 225.826 65.7344Z" fill="#2F2E41"/>
<path d="M235.238 29.4609L245.392 29.7783L255.864 43.7408C251.803 54.0039 247.983 61.4144 248.15 68.7323C248.164 69.3523 249.175 70.7451 249.258 71.3173C249.37 72.0906 247.9 73.2251 248.15 73.9022L223.609 68.6849C224.106 67.9846 223.678 67.0994 223.979 66.4693C224.243 65.9153 225.256 65.6113 225.379 65.0741C226.043 62.1733 226.398 57.3335 223.897 51.6501C222.119 47.6088 229.946 38.1813 229.526 33.5862L235.238 29.4609Z" fill="#FD6C6C"/>
<path d="M237.567 35.9785L218.888 61.1922L196.992 55.1629L197.944 49.451L214.617 52.6088L223.919 38.3091C226.956 32.438 232.942 31.2556 237.567 35.9785Z" fill="#FD6C6C"/>
<path d="M239.974 26.2443C244.839 26.2443 248.783 22.3001 248.783 17.4347C248.783 12.5692 244.839 8.625 239.974 8.625C235.108 8.625 231.164 12.5692 231.164 17.4347C231.164 22.3001 235.108 26.2443 239.974 26.2443Z" fill="#FFB7B7"/>
<path d="M248.168 96.5044C248.416 95.6321 248.84 94.8881 249.345 94.3573L251.18 85.8984L255.179 86.8893L252.888 95.3633C253.038 96.0803 253.008 96.9362 252.76 97.8085C252.194 99.8013 250.708 101.125 249.44 100.765C248.171 100.405 247.602 98.4972 248.168 96.5044Z" fill="#FFB6B6"/>
<path d="M248.719 34.577C248.719 34.577 256.103 34.2009 256.641 39.0977C257.179 43.9946 258.899 71.8838 258.899 71.8838L254.911 90.7084L249.225 89.9182L251.738 65.9566L248.719 34.577Z" fill="#FD6C6C"/>
<path d="M248.933 9.94724C248.933 11.9376 247.829 14.5004 247.829 17.51L244.48 16.6385C244.413 16.0551 244.073 14.2308 243.922 13.6622C244 14.1976 244.166 15.996 243.981 16.5056L242.338 16.0772C242.327 15.7707 242.301 15.4642 242.264 15.1614C242.197 14.5779 242.087 14.0019 241.935 13.4332C242.013 13.9686 241.95 14.5189 241.765 15.0285C241.658 15.3091 241.518 15.575 241.341 15.8187L233.231 13.7028C231.267 12.9636 230.966 15.5648 230.997 18.832C230.997 18.832 229.889 7.38445 238.309 6.72344L239.579 5.45312C247.227 5.89256 248.933 7.47678 248.933 9.94724Z" fill="#2F2E41"/>
<path d="M230.88 20.7891C231.182 23.8636 230.814 26.9569 230.376 30.0185C230.236 31.0038 230.079 32.0124 229.554 32.8896C229.029 33.7668 228.052 34.4992 226.934 34.5219C228.693 34.997 230.721 34.5806 232.067 33.4681C233.433 32.3387 234.033 30.6268 234.079 28.9706C234.125 27.3144 233.677 25.6823 233.232 24.0734L230.88 20.7891Z" fill="#2F2E41"/>
<path d="M246.962 8.9375C247.264 14.5429 246.896 20.1825 246.458 25.7643C246.318 27.5607 246.161 29.3996 245.636 30.9988C245.111 32.5981 244.135 33.9334 243.016 33.9749C244.775 34.8411 246.803 34.0818 248.149 32.0536C249.515 29.9945 250.115 26.8735 250.161 23.8539C250.207 20.8343 249.759 17.8587 249.314 14.9253L246.962 8.9375Z" fill="#2F2E41"/>
<path d="M59.7042 176.063L65.0049 176.063L67.5264 155.617L59.7031 155.618L59.7042 176.063Z" fill="#A0616A"/>
<path d="M77.8635 175.941C78.0285 176.219 78.1156 177.116 78.1156 177.44C78.1156 178.433 77.3101 179.239 76.3166 179.239H59.9011C59.2232 179.239 58.6737 178.689 58.6737 178.011V177.328C58.6737 177.328 57.8617 175.274 59.5336 172.742C59.5336 172.742 61.6115 174.725 64.7165 171.62L65.6321 169.961L72.26 174.808L75.9337 175.26C76.7375 175.359 77.4501 175.245 77.8635 175.941Z" fill="#2F2E41"/>
<path d="M43.4542 176.063L48.7549 176.063L51.2764 155.617L43.4531 155.618L43.4542 176.063Z" fill="#A0616A"/>
<path d="M61.6135 175.941C61.7785 176.219 61.8656 177.116 61.8656 177.44C61.8656 178.433 61.0601 179.239 60.0666 179.239H43.6511C42.9732 179.239 42.4237 178.689 42.4237 178.011V177.328C42.4237 177.328 41.6117 175.274 43.2836 172.742C43.2836 172.742 45.3615 174.725 48.4665 171.62L49.3821 169.961L56.01 174.808L59.6837 175.26C60.4875 175.359 61.2001 175.245 61.6135 175.941Z" fill="#2F2E41"/>
<path d="M44.3274 73.6719L41.0039 126.478L42.6656 167.222H53.0083L59.4677 98.0441L58.0328 167.222L67.5918 167.099L77.7469 87.5198C77.7469 87.5198 77.5623 79.2111 74.4234 74.9644C71.2846 70.7177 44.3274 73.6719 44.3274 73.6719Z" fill="#2F2E41"/>
<path d="M82.8092 61.5234L74.4844 61.8514L75.4568 71.15L91.7771 83.457L93.9928 80.1336L82.2736 66.6389L82.8092 61.5234Z" fill="#A0616A"/>
<path d="M67.0389 27.3266L55.5914 26.2188L47.098 30.2808V63.8849L44.3973 69.532C43.5275 71.3506 43.436 73.445 44.1438 75.3325L74.4245 74.9632L73.6859 70.9012L75.163 63.1464L76.2708 34.7121L67.0389 27.3266Z" fill="#BE1717"/>
<path d="M73.8701 34.526C73.8701 34.526 76.455 31.9411 78.3014 38.5881C80.1478 45.235 84.5791 68.8687 84.5791 68.8687L74.0547 69.0534L71.2852 43.7579L73.8701 34.526Z" fill="#BE1717"/>
<path d="M44.3267 62.9609L43.2188 90.2336L39.1568 90.6567L37.6797 63.6995L44.3267 62.9609Z" fill="#A0616A"/>
<path d="M51.3414 30.4635C51.3414 30.4635 44.6944 27.8786 42.848 34.5256C41.0016 41.1725 36.5703 64.8062 36.5703 64.8062L44.6944 65.3892L53.9263 39.6954L51.3414 30.4635Z" fill="#BE1717"/>
<path d="M60.9983 24.1059C66.5762 24.1059 71.0981 19.5841 71.0981 14.0061C71.0981 8.42809 66.5762 3.90625 60.9983 3.90625C55.4203 3.90625 50.8984 8.42809 50.8984 14.0061C50.8984 19.5841 55.4203 24.1059 60.9983 24.1059Z" fill="#A0616A"/>
<path d="M41.4122 98.4474C43.0974 98.3901 44.3852 96.0429 44.2888 93.2048C44.1923 90.3667 42.748 88.1124 41.0629 88.1697C39.3778 88.227 38.0899 90.5742 38.1864 93.4123C38.2829 96.2504 39.7271 98.5047 41.4122 98.4474Z" fill="#A0616A"/>
<path d="M99.6963 87.5289C100.83 86.2808 100.045 83.7212 97.9426 81.812C95.8405 79.9028 93.2174 79.3669 92.0838 80.615C90.9502 81.8632 91.7354 84.4227 93.8375 86.332C95.9396 88.2412 98.5627 88.7771 99.6963 87.5289Z" fill="#A0616A"/>
<path d="M68.8221 5.31591C67.8203 3.74032 67.1316 4.37772 65.2747 4.18325C64.2104 4.0718 62.2193 2.399 61.1769 2.64111C59.803 2.96025 58.3946 3.29396 57.2246 4.08181C54.7439 2.6225 53.8616 5.47885 51.7107 7.39111C49.5597 9.30335 48.8303 12.6466 49.9891 15.281C50.5409 16.5356 50.4988 17.8669 51.3964 18.9027C52.4297 20.0951 52.999 21.7547 53.0786 21.8466C53.5086 22.3428 55.5342 22.6912 55.6168 22.7865C56.4279 23.7224 57.7347 23.434 58.5458 24.3699L59.0134 19.4184C58.3568 18.8154 57.6773 18.1792 57.371 17.342C57.0646 16.5048 57.2677 15.4083 58.0543 14.9888C58.673 14.6589 59.5007 14.8073 60.0398 14.3589C60.8627 13.6744 60.355 12.2427 60.9541 11.3557C61.3083 10.8313 61.9654 10.6202 62.5731 10.4438C63.5582 10.1579 64.5432 9.87206 65.5282 9.58619C66.4446 9.32023 67.3857 9.05156 68.3368 9.12746C69.2879 9.20339 70.2662 9.69959 70.642 10.5766C70.2953 8.74202 69.8238 6.8915 68.8221 5.31591Z" fill="#2F2E41"/>
<path d="M103.181 68.792C101.928 65.564 98.2958 63.9627 95.0678 65.2154C91.8704 66.4563 90.2708 70.0315 91.4581 73.2362L91.3645 73.2726L95.901 84.9621L106.657 80.7877C107.013 80.7174 107.368 80.6172 107.717 80.4815C110.945 79.2288 112.547 75.5964 111.294 72.3685C110.041 69.1405 106.409 67.5393 103.181 68.792Z" fill="#FFAFAF"/>
<path d="M190.746 6.2777V45.421C190.746 48.8826 187.929 51.6987 184.468 51.6987H145.325C141.863 51.6987 139.047 48.8826 139.047 45.421V6.2777C139.047 2.81609 141.863 0 145.325 0H184.468C187.929 0 190.746 2.81609 190.746 6.2777ZM184.468 50.9601C187.527 50.9601 190.007 48.4802 190.007 45.421V25.6865C190.007 11.9081 178.837 0.738553 165.059 0.738553C151.101 0.738553 139.785 12.0539 139.785 26.0121V45.421C139.785 48.4802 142.265 50.9601 145.325 50.9601H184.468Z" fill="#FFAFAF"/>
<path d="M182.37 14.1162C178.954 13.5521 175.727 15.8643 175.163 19.2806C174.604 22.6644 176.868 25.8607 180.231 26.4693L180.215 26.5684L192.586 28.6111L194.466 17.2272C194.586 16.8853 194.68 16.5291 194.741 16.159C195.305 12.7427 192.993 9.516 189.577 8.95192C186.161 8.38784 182.934 10.6999 182.37 14.1162Z" fill="#FFAFAF"/>
<path d="M141.587 41.4717C140.334 38.2437 136.702 36.6424 133.474 37.8951C130.277 39.136 128.677 42.7112 129.864 45.9159L129.771 45.9523L134.307 57.6418L145.064 53.4674C145.419 53.3971 145.774 53.2969 146.124 53.1612C149.351 51.9085 150.953 48.2761 149.7 45.0482C148.447 41.8202 144.815 40.2189 141.587 41.4717Z" fill="#FFAFAF"/>
<path d="M239.103 83.3331C235.719 82.5996 232.381 84.7481 231.648 88.132C230.921 91.4839 233.023 94.7889 236.351 95.5643L236.33 95.6625L248.584 98.3189L251.029 87.0428C251.166 86.7073 251.278 86.3562 251.357 85.9897C252.091 82.6057 249.942 79.2678 246.558 78.5343C243.174 77.8007 239.836 79.9492 239.103 83.3331Z" fill="#FFAFAF"/>
<path d="M28.9935 173.431C28.2307 173.479 27.809 172.531 28.3862 171.979L28.4436 171.751C28.4361 171.732 28.4285 171.714 28.4208 171.696C27.6493 169.856 25.0346 169.869 24.2696 171.711C23.5907 173.347 22.7263 174.985 22.5134 176.714C22.418 177.477 22.461 178.254 22.6303 179.003C21.0394 175.528 20.2023 171.733 20.2023 167.917C20.2023 166.958 20.2547 166 20.3621 165.043C20.4503 164.261 20.572 163.483 20.7294 162.713C21.5808 158.549 23.4246 154.582 26.0839 151.269C27.3624 150.57 28.4285 149.478 29.0725 148.169C29.3038 147.696 29.4851 147.188 29.571 146.671C29.4255 146.69 29.0224 144.474 29.1321 144.338C28.9293 144.03 28.5665 143.877 28.345 143.577C27.2437 142.084 25.7264 142.345 24.9343 144.374C23.2422 145.228 23.2258 146.644 24.2641 148.006C24.9246 148.873 25.0154 150.046 25.595 150.973C25.5353 151.05 25.4733 151.124 25.4137 151.2C24.3203 152.603 23.3745 154.11 22.5773 155.694C22.8026 153.934 22.4699 151.813 21.9028 150.446C21.2573 148.889 20.0473 147.577 18.9817 146.231C17.7018 144.614 15.0772 145.32 14.8517 147.37C14.8495 147.39 14.8474 147.409 14.8453 147.429C15.0036 147.518 15.1586 147.613 15.3101 147.714C16.174 148.285 15.8754 149.624 14.8518 149.782L14.8286 149.786C14.8859 150.356 14.9837 150.921 15.1267 151.477C13.7598 156.763 16.711 158.689 20.9249 158.775C21.018 158.823 21.1086 158.871 21.2016 158.916C20.7747 160.118 20.4336 161.351 20.1808 162.601C19.9542 163.705 19.7968 164.821 19.7085 165.942C19.5988 167.357 19.6084 168.778 19.7276 170.19L19.7205 170.14C19.4176 168.585 18.5732 167.133 17.3473 166.126C15.521 164.626 12.9408 164.073 10.9705 162.867C10.0221 162.287 8.80676 163.037 8.97229 164.137L8.98035 164.189C9.27371 164.309 9.55991 164.447 9.83659 164.602C9.99486 164.691 10.1499 164.786 10.3014 164.886C11.1653 165.458 10.8667 166.797 9.84308 166.955L9.81988 166.958C9.80319 166.961 9.78887 166.963 9.7722 166.966C10.2755 168.161 10.9767 169.27 11.8544 170.226C12.7091 174.841 16.3802 175.279 20.3072 173.935H20.3096C20.7389 175.805 21.3662 177.632 22.1724 179.373H28.8268C28.8507 179.299 28.8721 179.223 28.8936 179.149C28.2782 179.187 27.6581 179.151 27.0523 179.039C27.546 178.433 28.0397 177.823 28.5334 177.217C28.5454 177.205 28.5549 177.193 28.5644 177.181C28.8149 176.871 29.0677 176.563 29.3181 176.253L29.3183 176.253C29.3339 175.301 29.2196 174.352 28.9935 173.431Z" fill="#F2F2F2"/>
<path d="M0.460491 179.999H276.044C276.299 179.999 276.505 179.793 276.505 179.539C276.505 179.284 276.299 179.078 276.044 179.078H0.460491C0.206174 179.078 0 179.284 0 179.539C0 179.793 0.206174 179.999 0.460491 179.999Z" fill="#E6E6E6"/>
</g>
<defs>
<clipPath id="clip0_2081_88280">
<rect width="276.505" height="180" fill="white"/>
</clipPath>
</defs>
</svg>
